<mxfile host="Electron" modified="2023-04-04T07:02:18.179Z" agent="Mozilla/5.0 (Windows NT 10.0; Win64; x64) AppleWebKit/537.36 (KHTML, like Gecko) draw.io/21.1.2 Chrome/106.0.5249.199 Electron/21.4.3 Safari/537.36" etag="Xn26yAxzeDXZJRdrpZtW" version="21.1.2" type="device">
  <diagram id="C5RBs43oDa-KdzZeNtuy" name="Page-1">
    <mxGraphModel dx="1658" dy="828" grid="1" gridSize="10" guides="1" tooltips="1" connect="1" arrows="1" fold="1" page="1" pageScale="1" pageWidth="827" pageHeight="1169" math="0" shadow="0">
      <root>
        <mxCell id="WIyWlLk6GJQsqaUBKTNV-0" />
        <mxCell id="WIyWlLk6GJQsqaUBKTNV-1" parent="WIyWlLk6GJQsqaUBKTNV-0" />
        <mxCell id="hzerCCfVcDW8n5RPLtf0-5" value="&lt;font style=&quot;font-size: 18px;&quot;&gt;메인 피드 페이지&lt;br&gt;01_post.jsp&lt;/font&gt;" style="rounded=1;whiteSpace=wrap;html=1;fontSize=12;glass=0;strokeWidth=1;shadow=0;" parent="WIyWlLk6GJQsqaUBKTNV-1" vertex="1">
          <mxGeometry x="250" y="180" width="320" height="50" as="geometry" />
        </mxCell>
        <mxCell id="hzerCCfVcDW8n5RPLtf0-10" value="&lt;b&gt;&lt;font style=&quot;font-size: 18px;&quot;&gt;바멘텀 무한스크롤 기능 흐름도&lt;/font&gt;&lt;/b&gt;" style="rounded=0;whiteSpace=wrap;html=1;" parent="WIyWlLk6GJQsqaUBKTNV-1" vertex="1">
          <mxGeometry x="80" y="40" width="680" height="60" as="geometry" />
        </mxCell>
        <mxCell id="lnJPEAX5A74dmJPwMCmh-2" value="&lt;font style=&quot;font-size: 18px;&quot;&gt;FrontController - 서블릿 클래스&lt;br&gt;FrontController.java&lt;/font&gt;" style="rounded=1;whiteSpace=wrap;html=1;fontSize=12;glass=0;strokeWidth=1;shadow=0;" parent="WIyWlLk6GJQsqaUBKTNV-1" vertex="1">
          <mxGeometry x="250" y="290" width="330" height="50" as="geometry" />
        </mxCell>
        <mxCell id="pK67xfKxK2wcU8J90rVl-1" value="&lt;font style=&quot;font-size: 18px;&quot;&gt;Command 구현 클래스&lt;br&gt;MorePage.java&lt;/font&gt;" style="rounded=1;whiteSpace=wrap;html=1;fontSize=12;glass=0;strokeWidth=1;shadow=0;" parent="WIyWlLk6GJQsqaUBKTNV-1" vertex="1">
          <mxGeometry x="250" y="390" width="320" height="50" as="geometry" />
        </mxCell>
        <mxCell id="pK67xfKxK2wcU8J90rVl-2" value="&lt;font style=&quot;font-size: 18px;&quot;&gt;Oracle DB&lt;/font&gt;" style="rounded=1;whiteSpace=wrap;html=1;fontSize=12;glass=0;strokeWidth=1;shadow=0;arcSize=32;" parent="WIyWlLk6GJQsqaUBKTNV-1" vertex="1">
          <mxGeometry x="250" y="810" width="320" height="50" as="geometry" />
        </mxCell>
        <mxCell id="pK67xfKxK2wcU8J90rVl-3" value="&lt;font style=&quot;font-size: 18px;&quot;&gt;DB Access 클래스&lt;br style=&quot;border-color: var(--border-color);&quot;&gt;BmtPostDAO.java&lt;/font&gt;" style="rounded=1;whiteSpace=wrap;html=1;fontSize=12;glass=0;strokeWidth=1;shadow=0;" parent="WIyWlLk6GJQsqaUBKTNV-1" vertex="1">
          <mxGeometry x="250" y="490" width="320" height="50" as="geometry" />
        </mxCell>
        <mxCell id="pK67xfKxK2wcU8J90rVl-4" value="&lt;font style=&quot;font-size: 18px;&quot;&gt;MyBatis 설정 및 접근 클래스&lt;br style=&quot;border-color: var(--border-color);&quot;&gt;SqlSessionManager.java&lt;/font&gt;" style="rounded=1;whiteSpace=wrap;html=1;fontSize=12;glass=0;strokeWidth=1;shadow=0;" parent="WIyWlLk6GJQsqaUBKTNV-1" vertex="1">
          <mxGeometry x="250" y="590" width="320" height="50" as="geometry" />
        </mxCell>
        <mxCell id="pK67xfKxK2wcU8J90rVl-5" value="&lt;font style=&quot;font-size: 18px;&quot;&gt;MyBatis-mapper&lt;br&gt;bmt_Mapper.xml&lt;/font&gt;" style="rounded=1;whiteSpace=wrap;html=1;fontSize=12;glass=0;strokeWidth=1;shadow=0;" parent="WIyWlLk6GJQsqaUBKTNV-1" vertex="1">
          <mxGeometry x="250" y="690" width="320" height="50" as="geometry" />
        </mxCell>
        <mxCell id="pK67xfKxK2wcU8J90rVl-8" value="" style="endArrow=classic;html=1;rounded=0;exitX=0.25;exitY=1;exitDx=0;exitDy=0;entryX=0.25;entryY=0;entryDx=0;entryDy=0;" parent="WIyWlLk6GJQsqaUBKTNV-1" source="pK67xfKxK2wcU8J90rVl-1" target="pK67xfKxK2wcU8J90rVl-3" edge="1">
          <mxGeometry width="50" height="50" relative="1" as="geometry">
            <mxPoint x="570" y="430" as="sourcePoint" />
            <mxPoint x="570" y="490" as="targetPoint" />
          </mxGeometry>
        </mxCell>
        <mxCell id="pK67xfKxK2wcU8J90rVl-9" value="" style="endArrow=classic;html=1;rounded=0;exitX=0.25;exitY=1;exitDx=0;exitDy=0;entryX=0.25;entryY=0;entryDx=0;entryDy=0;" parent="WIyWlLk6GJQsqaUBKTNV-1" source="pK67xfKxK2wcU8J90rVl-3" target="pK67xfKxK2wcU8J90rVl-4" edge="1">
          <mxGeometry width="50" height="50" relative="1" as="geometry">
            <mxPoint x="340" y="560" as="sourcePoint" />
            <mxPoint x="340" y="610" as="targetPoint" />
          </mxGeometry>
        </mxCell>
        <mxCell id="pK67xfKxK2wcU8J90rVl-10" value="" style="endArrow=classic;html=1;rounded=0;exitX=0.25;exitY=1;exitDx=0;exitDy=0;" parent="WIyWlLk6GJQsqaUBKTNV-1" edge="1">
          <mxGeometry width="50" height="50" relative="1" as="geometry">
            <mxPoint x="330" y="640" as="sourcePoint" />
            <mxPoint x="330" y="690" as="targetPoint" />
          </mxGeometry>
        </mxCell>
        <mxCell id="pK67xfKxK2wcU8J90rVl-11" value="" style="endArrow=classic;html=1;rounded=0;entryX=0.25;entryY=0;entryDx=0;entryDy=0;exitX=0.25;exitY=1;exitDx=0;exitDy=0;" parent="WIyWlLk6GJQsqaUBKTNV-1" source="pK67xfKxK2wcU8J90rVl-5" target="pK67xfKxK2wcU8J90rVl-2" edge="1">
          <mxGeometry width="50" height="50" relative="1" as="geometry">
            <mxPoint x="310" y="750" as="sourcePoint" />
            <mxPoint x="380" y="810" as="targetPoint" />
          </mxGeometry>
        </mxCell>
        <mxCell id="pK67xfKxK2wcU8J90rVl-12" value="&lt;div style=&quot;text-align: center;&quot;&gt;ajax 방식 전송&lt;/div&gt;&lt;div style=&quot;text-align: center;&quot;&gt;- more_page.do 호출&lt;br&gt;-변수 : json 방식&lt;/div&gt;" style="text;whiteSpace=wrap;html=1;" parent="WIyWlLk6GJQsqaUBKTNV-1" vertex="1">
          <mxGeometry x="90" y="230" width="140" height="50" as="geometry" />
        </mxCell>
        <mxCell id="pK67xfKxK2wcU8J90rVl-13" value="&lt;div style=&quot;text-align: center;&quot;&gt;매개변수&lt;/div&gt;&lt;div style=&quot;text-align: center;&quot;&gt;HttpServletRequest,&lt;br&gt;HttpServletResponse&lt;/div&gt;" style="text;whiteSpace=wrap;html=1;" parent="WIyWlLk6GJQsqaUBKTNV-1" vertex="1">
          <mxGeometry x="90" y="340" width="140" height="50" as="geometry" />
        </mxCell>
        <mxCell id="pK67xfKxK2wcU8J90rVl-14" value="&lt;div style=&quot;text-align: center;&quot;&gt;매개변수&lt;/div&gt;&lt;div style=&quot;text-align: center;&quot;&gt;BmtPostDTO&lt;/div&gt;" style="text;whiteSpace=wrap;html=1;" parent="WIyWlLk6GJQsqaUBKTNV-1" vertex="1">
          <mxGeometry x="90" y="540" width="140" height="50" as="geometry" />
        </mxCell>
        <mxCell id="pK67xfKxK2wcU8J90rVl-15" value="&lt;div style=&quot;text-align: center;&quot;&gt;매개변수&lt;/div&gt;&lt;div style=&quot;text-align: center;&quot;&gt;BmtPostDTO&lt;/div&gt;" style="text;whiteSpace=wrap;html=1;" parent="WIyWlLk6GJQsqaUBKTNV-1" vertex="1">
          <mxGeometry x="90" y="440" width="140" height="50" as="geometry" />
        </mxCell>
        <mxCell id="pK67xfKxK2wcU8J90rVl-17" value="&lt;div style=&quot;text-align: center;&quot;&gt;매개변수&lt;/div&gt;&lt;div style=&quot;text-align: center;&quot;&gt;SQL id, DTO&lt;/div&gt;" style="text;whiteSpace=wrap;html=1;" parent="WIyWlLk6GJQsqaUBKTNV-1" vertex="1">
          <mxGeometry x="90" y="740" width="140" height="50" as="geometry" />
        </mxCell>
        <mxCell id="pK67xfKxK2wcU8J90rVl-19" value="" style="endArrow=classic;html=1;rounded=0;entryX=0.75;entryY=1;entryDx=0;entryDy=0;" parent="WIyWlLk6GJQsqaUBKTNV-1" edge="1">
          <mxGeometry width="50" height="50" relative="1" as="geometry">
            <mxPoint x="450" y="690" as="sourcePoint" />
            <mxPoint x="450" y="640" as="targetPoint" />
          </mxGeometry>
        </mxCell>
        <mxCell id="pK67xfKxK2wcU8J90rVl-20" value="" style="endArrow=classic;html=1;rounded=0;entryX=0.75;entryY=1;entryDx=0;entryDy=0;" parent="WIyWlLk6GJQsqaUBKTNV-1" edge="1">
          <mxGeometry width="50" height="50" relative="1" as="geometry">
            <mxPoint x="450" y="590" as="sourcePoint" />
            <mxPoint x="450" y="540" as="targetPoint" />
          </mxGeometry>
        </mxCell>
        <mxCell id="pK67xfKxK2wcU8J90rVl-21" value="" style="endArrow=classic;html=1;rounded=0;entryX=0.75;entryY=1;entryDx=0;entryDy=0;" parent="WIyWlLk6GJQsqaUBKTNV-1" edge="1">
          <mxGeometry width="50" height="50" relative="1" as="geometry">
            <mxPoint x="450" y="490" as="sourcePoint" />
            <mxPoint x="450" y="440" as="targetPoint" />
          </mxGeometry>
        </mxCell>
        <mxCell id="pK67xfKxK2wcU8J90rVl-22" value="" style="endArrow=classic;html=1;rounded=0;entryX=0.75;entryY=1;entryDx=0;entryDy=0;" parent="WIyWlLk6GJQsqaUBKTNV-1" edge="1">
          <mxGeometry width="50" height="50" relative="1" as="geometry">
            <mxPoint x="450" y="390" as="sourcePoint" />
            <mxPoint x="450" y="340" as="targetPoint" />
          </mxGeometry>
        </mxCell>
        <mxCell id="pK67xfKxK2wcU8J90rVl-24" value="" style="endArrow=classic;html=1;rounded=0;exitX=0.25;exitY=1;exitDx=0;exitDy=0;entryX=0.25;entryY=0;entryDx=0;entryDy=0;" parent="WIyWlLk6GJQsqaUBKTNV-1" edge="1">
          <mxGeometry width="50" height="50" relative="1" as="geometry">
            <mxPoint x="330" y="340" as="sourcePoint" />
            <mxPoint x="330" y="390" as="targetPoint" />
          </mxGeometry>
        </mxCell>
        <mxCell id="pK67xfKxK2wcU8J90rVl-25" value="" style="endArrow=classic;html=1;rounded=0;entryX=0.227;entryY=-0.02;entryDx=0;entryDy=0;entryPerimeter=0;" parent="WIyWlLk6GJQsqaUBKTNV-1" target="lnJPEAX5A74dmJPwMCmh-2" edge="1">
          <mxGeometry width="50" height="50" relative="1" as="geometry">
            <mxPoint x="325" y="230" as="sourcePoint" />
            <mxPoint x="330" y="280" as="targetPoint" />
          </mxGeometry>
        </mxCell>
        <mxCell id="pK67xfKxK2wcU8J90rVl-26" value="" style="endArrow=classic;html=1;rounded=0;entryX=0.75;entryY=1;entryDx=0;entryDy=0;exitX=0.603;exitY=-0.08;exitDx=0;exitDy=0;exitPerimeter=0;" parent="WIyWlLk6GJQsqaUBKTNV-1" source="lnJPEAX5A74dmJPwMCmh-2" edge="1">
          <mxGeometry width="50" height="50" relative="1" as="geometry">
            <mxPoint x="450" y="280" as="sourcePoint" />
            <mxPoint x="450" y="230" as="targetPoint" />
          </mxGeometry>
        </mxCell>
        <mxCell id="pK67xfKxK2wcU8J90rVl-27" value="" style="endArrow=classic;html=1;rounded=0;entryX=0.75;entryY=1;entryDx=0;entryDy=0;exitX=0.631;exitY=-0.08;exitDx=0;exitDy=0;exitPerimeter=0;" parent="WIyWlLk6GJQsqaUBKTNV-1" source="pK67xfKxK2wcU8J90rVl-2" edge="1">
          <mxGeometry width="50" height="50" relative="1" as="geometry">
            <mxPoint x="450" y="800" as="sourcePoint" />
            <mxPoint x="450" y="740" as="targetPoint" />
          </mxGeometry>
        </mxCell>
        <mxCell id="LyxFFYHaQxzIcobb8epO-0" value="&lt;div style=&quot;text-align: center;&quot;&gt;리턴변수&lt;/div&gt;&lt;div style=&quot;text-align: center;&quot;&gt;bmtPostDTO&lt;/div&gt;" style="text;whiteSpace=wrap;html=1;" parent="WIyWlLk6GJQsqaUBKTNV-1" vertex="1">
          <mxGeometry x="620" y="740" width="140" height="50" as="geometry" />
        </mxCell>
        <mxCell id="LyxFFYHaQxzIcobb8epO-1" value="&lt;div style=&quot;text-align: center;&quot;&gt;리턴변수&lt;/div&gt;&lt;div style=&quot;text-align: center;&quot;&gt;BmtPostDTO&lt;/div&gt;" style="text;whiteSpace=wrap;html=1;" parent="WIyWlLk6GJQsqaUBKTNV-1" vertex="1">
          <mxGeometry x="620" y="540" width="140" height="50" as="geometry" />
        </mxCell>
        <mxCell id="LyxFFYHaQxzIcobb8epO-3" value="&lt;div style=&quot;text-align: center;&quot;&gt;리턴변수&lt;/div&gt;&lt;div style=&quot;text-align: center;&quot;&gt;Json 형식&lt;br&gt;HttpServletResponse-&lt;span style=&quot;background-color: initial;&quot;&gt;PrinterWriter&lt;/span&gt;&lt;br&gt;&lt;/div&gt;" style="text;whiteSpace=wrap;html=1;" parent="WIyWlLk6GJQsqaUBKTNV-1" vertex="1">
          <mxGeometry x="610" y="340" width="140" height="70" as="geometry" />
        </mxCell>
        <mxCell id="LyxFFYHaQxzIcobb8epO-4" value="&lt;div style=&quot;text-align: center;&quot;&gt;&lt;div style=&quot;border-color: var(--border-color);&quot;&gt;리턴변수&lt;/div&gt;&lt;div style=&quot;border-color: var(--border-color);&quot;&gt;BmtPostDTO&lt;/div&gt;&lt;/div&gt;" style="text;whiteSpace=wrap;html=1;" parent="WIyWlLk6GJQsqaUBKTNV-1" vertex="1">
          <mxGeometry x="620" y="440" width="140" height="50" as="geometry" />
        </mxCell>
        <mxCell id="upJ52NQ2QSeUdRa5WeOP-0" value="&lt;div style=&quot;text-align: center;&quot;&gt;리턴변수&lt;/div&gt;&lt;div style=&quot;text-align: center;&quot;&gt;Json 형식&lt;br&gt;HttpServletResponse-&lt;span style=&quot;background-color: initial;&quot;&gt;PrinterWriter&lt;/span&gt;&lt;br&gt;&lt;/div&gt;" style="text;whiteSpace=wrap;html=1;" vertex="1" parent="WIyWlLk6GJQsqaUBKTNV-1">
          <mxGeometry x="610" y="220" width="140" height="70" as="geometry" />
        </mxCell>
      </root>
    </mxGraphModel>
  </diagram>
</mxfile>
